<svg xmlns="http://www.w3.org/2000/svg" viewBox="0 0 1050 550" width="100%" height="100%">

  <g transform="translate(50, 40)">
    
    <text x="40" y="370" 
          font-family="'Poppins', 'Montserrat', 'Inter', 'Segoe UI', sans-serif" 
          font-size="220" 
          font-weight="700" 
          fill="#FFFFFF" 
          letter-spacing="-5">Spybee</text>

    <g transform="translate(685, 65)" fill="none" stroke="#FFB900" stroke-width="15" stroke-linecap="round" stroke-linejoin="round">
      <path d="M 60,70 C 40,40 50,15 65,15 C 80,15 75,50 60,70 C 45,50 40,15 55,15 C 70,15 80,40 60,70 Z" />
      <path d="M 52,70 C 20,95 -30,120 -30,165 C -30,225 -10,220 20,190 L 110,120" />
      <path d="M 68,70 C 100,95 150,120 150,165 C 150,225 130,220 100,190 L 10,120" />
      <path d="M 35,175 L 85,175 C 85,175 90,220 60,250 C 30,220 35,175 35,175 Z" />
      <path d="M 40,200 L 80,200" stroke-width="12" />
      <path d="M 46,220 L 74,220" stroke-width="12" />
    </g>
  </g>
</svg>
